<svg xmlns="http://www.w3.org/2000/svg" width="256" height="64" viewBox="0 0 256 64"><defs><linearGradient id="w" x1="0" y1="0" x2="0" y2="1"><stop offset="0" stop-color="#4f96a4"/><stop offset="1" stop-color="#2a5661"/></linearGradient></defs><rect width="256" height="64" fill="url(#w)" opacity=".92"/><path d="M0 5.76 Q4 1.92 8 5.76 T16 5.76 T24 5.76 T32 5.76 T40 5.76 T48 5.76 T56 5.76 T64 5.76 T72 5.76 T80 5.76 T88 5.76 T96 5.76 T104 5.76 T112 5.76 T120 5.76 T128 5.76 T136 5.76 T144 5.76 T152 5.76 T160 5.76 T168 5.76 T176 5.76 T184 5.76 T192 5.76 T200 5.76 T208 5.76 T216 5.76 T224 5.76 T232 5.76 T240 5.76 T248 5.76 T256 5.76" fill="none" stroke="#c2e0e4" stroke-width="2.56" opacity=".75"/><ellipse cx="19.2" cy="29.44" rx="6.4" ry="1.9" fill="#c2e0e4" opacity=".2"/><ellipse cx="107.52" cy="46.08" rx="6.4" ry="1.9" fill="#c2e0e4" opacity=".2"/><ellipse cx="147.2" cy="29.44" rx="6.4" ry="1.9" fill="#c2e0e4" opacity=".2"/><ellipse cx="235.52" cy="46.08" rx="6.4" ry="1.9" fill="#c2e0e4" opacity=".2"/><g visibility="hidden"><rect data-t="7" width="256" height="64"/></g></svg>